<mxfile host="app.diagrams.net" modified="2024-04-18T05:52:51.423Z" agent="Mozilla/5.0 (Windows NT 10.0; Win64; x64) AppleWebKit/537.36 (KHTML, like Gecko) Chrome/123.0.0.0 Safari/537.36" etag="GKnaQarQMLqHh_Y2JMd2" version="24.2.5" type="github">
  <diagram id="C5RBs43oDa-KdzZeNtuy" name="Page-1">
    <mxGraphModel dx="1194" dy="820" grid="0" gridSize="10" guides="1" tooltips="1" connect="1" arrows="1" fold="1" page="0" pageScale="1" pageWidth="827" pageHeight="1169" math="0" shadow="0">
      <root>
        <mxCell id="WIyWlLk6GJQsqaUBKTNV-0" />
        <mxCell id="WIyWlLk6GJQsqaUBKTNV-1" parent="WIyWlLk6GJQsqaUBKTNV-0" />
        <mxCell id="WIyWlLk6GJQsqaUBKTNV-2" value="" style="rounded=0;html=1;jettySize=auto;orthogonalLoop=1;fontSize=11;endArrow=block;endFill=0;endSize=8;strokeWidth=1;shadow=0;labelBackgroundColor=none;edgeStyle=orthogonalEdgeStyle;" parent="WIyWlLk6GJQsqaUBKTNV-1" target="WIyWlLk6GJQsqaUBKTNV-6" edge="1">
          <mxGeometry relative="1" as="geometry">
            <mxPoint x="220" y="120" as="sourcePoint" />
          </mxGeometry>
        </mxCell>
        <mxCell id="WIyWlLk6GJQsqaUBKTNV-4" value="Yes" style="rounded=0;html=1;jettySize=auto;orthogonalLoop=1;fontSize=11;endArrow=block;endFill=0;endSize=8;strokeWidth=1;shadow=0;labelBackgroundColor=none;edgeStyle=orthogonalEdgeStyle;" parent="WIyWlLk6GJQsqaUBKTNV-1" source="WIyWlLk6GJQsqaUBKTNV-6" edge="1">
          <mxGeometry x="-0.4075" y="9" relative="1" as="geometry">
            <mxPoint as="offset" />
            <mxPoint x="220" y="290" as="targetPoint" />
          </mxGeometry>
        </mxCell>
        <mxCell id="WIyWlLk6GJQsqaUBKTNV-5" value="No" style="edgeStyle=orthogonalEdgeStyle;rounded=0;html=1;jettySize=auto;orthogonalLoop=1;fontSize=11;endArrow=block;endFill=0;endSize=8;strokeWidth=1;shadow=0;labelBackgroundColor=none;" parent="WIyWlLk6GJQsqaUBKTNV-1" source="WIyWlLk6GJQsqaUBKTNV-6" target="WIyWlLk6GJQsqaUBKTNV-7" edge="1">
          <mxGeometry y="10" relative="1" as="geometry">
            <mxPoint as="offset" />
          </mxGeometry>
        </mxCell>
        <mxCell id="WIyWlLk6GJQsqaUBKTNV-6" value="判断工艺阶段是否变化" style="rhombus;whiteSpace=wrap;html=1;shadow=0;fontFamily=Helvetica;fontSize=12;align=center;strokeWidth=1;spacing=6;spacingTop=-4;" parent="WIyWlLk6GJQsqaUBKTNV-1" vertex="1">
          <mxGeometry x="170" y="170" width="100" height="80" as="geometry" />
        </mxCell>
        <mxCell id="XBTfPMOrWh-o7naQ7V93-5" style="edgeStyle=orthogonalEdgeStyle;rounded=0;orthogonalLoop=1;jettySize=auto;html=1;exitX=1;exitY=0.5;exitDx=0;exitDy=0;entryX=1;entryY=0.5;entryDx=0;entryDy=0;" edge="1" parent="WIyWlLk6GJQsqaUBKTNV-1" source="WIyWlLk6GJQsqaUBKTNV-7" target="XBTfPMOrWh-o7naQ7V93-1">
          <mxGeometry relative="1" as="geometry" />
        </mxCell>
        <mxCell id="WIyWlLk6GJQsqaUBKTNV-7" value="工艺阶段未变化" style="rounded=1;whiteSpace=wrap;html=1;fontSize=12;glass=0;strokeWidth=1;shadow=0;" parent="WIyWlLk6GJQsqaUBKTNV-1" vertex="1">
          <mxGeometry x="320" y="190" width="120" height="40" as="geometry" />
        </mxCell>
        <mxCell id="XBTfPMOrWh-o7naQ7V93-4" style="edgeStyle=orthogonalEdgeStyle;rounded=0;orthogonalLoop=1;jettySize=auto;html=1;exitX=0.5;exitY=1;exitDx=0;exitDy=0;" edge="1" parent="WIyWlLk6GJQsqaUBKTNV-1" source="XBTfPMOrWh-o7naQ7V93-0" target="XBTfPMOrWh-o7naQ7V93-3">
          <mxGeometry relative="1" as="geometry" />
        </mxCell>
        <mxCell id="XBTfPMOrWh-o7naQ7V93-0" value="数据预处理" style="rounded=1;whiteSpace=wrap;html=1;" vertex="1" parent="WIyWlLk6GJQsqaUBKTNV-1">
          <mxGeometry x="162" y="15" width="120" height="41" as="geometry" />
        </mxCell>
        <mxCell id="XBTfPMOrWh-o7naQ7V93-2" style="edgeStyle=orthogonalEdgeStyle;rounded=0;orthogonalLoop=1;jettySize=auto;html=1;exitX=0.5;exitY=1;exitDx=0;exitDy=0;" edge="1" parent="WIyWlLk6GJQsqaUBKTNV-1" source="XBTfPMOrWh-o7naQ7V93-1">
          <mxGeometry relative="1" as="geometry">
            <mxPoint x="222" y="16.66668701171875" as="targetPoint" />
          </mxGeometry>
        </mxCell>
        <mxCell id="XBTfPMOrWh-o7naQ7V93-1" value="定时获取CommData数据" style="rounded=1;whiteSpace=wrap;html=1;fontSize=12;glass=0;strokeWidth=1;shadow=0;" vertex="1" parent="WIyWlLk6GJQsqaUBKTNV-1">
          <mxGeometry x="162" y="-50" width="120" height="40" as="geometry" />
        </mxCell>
        <mxCell id="XBTfPMOrWh-o7naQ7V93-3" value="获取最后三条数据" style="rounded=1;whiteSpace=wrap;html=1;" vertex="1" parent="WIyWlLk6GJQsqaUBKTNV-1">
          <mxGeometry x="162" y="87" width="120" height="33" as="geometry" />
        </mxCell>
        <mxCell id="XBTfPMOrWh-o7naQ7V93-10" style="edgeStyle=orthogonalEdgeStyle;rounded=0;orthogonalLoop=1;jettySize=auto;html=1;exitX=0.25;exitY=1;exitDx=0;exitDy=0;" edge="1" parent="WIyWlLk6GJQsqaUBKTNV-1" source="XBTfPMOrWh-o7naQ7V93-6" target="XBTfPMOrWh-o7naQ7V93-7">
          <mxGeometry relative="1" as="geometry" />
        </mxCell>
        <mxCell id="XBTfPMOrWh-o7naQ7V93-11" style="edgeStyle=orthogonalEdgeStyle;rounded=0;orthogonalLoop=1;jettySize=auto;html=1;exitX=0.5;exitY=1;exitDx=0;exitDy=0;entryX=0.5;entryY=0;entryDx=0;entryDy=0;" edge="1" parent="WIyWlLk6GJQsqaUBKTNV-1" source="XBTfPMOrWh-o7naQ7V93-6" target="XBTfPMOrWh-o7naQ7V93-8">
          <mxGeometry relative="1" as="geometry" />
        </mxCell>
        <mxCell id="XBTfPMOrWh-o7naQ7V93-12" style="edgeStyle=orthogonalEdgeStyle;rounded=0;orthogonalLoop=1;jettySize=auto;html=1;exitX=0.75;exitY=1;exitDx=0;exitDy=0;entryX=0.5;entryY=0;entryDx=0;entryDy=0;" edge="1" parent="WIyWlLk6GJQsqaUBKTNV-1" source="XBTfPMOrWh-o7naQ7V93-6" target="XBTfPMOrWh-o7naQ7V93-9">
          <mxGeometry relative="1" as="geometry" />
        </mxCell>
        <mxCell id="XBTfPMOrWh-o7naQ7V93-20" style="edgeStyle=orthogonalEdgeStyle;rounded=0;orthogonalLoop=1;jettySize=auto;html=1;exitX=1;exitY=0.5;exitDx=0;exitDy=0;" edge="1" parent="WIyWlLk6GJQsqaUBKTNV-1" source="XBTfPMOrWh-o7naQ7V93-6">
          <mxGeometry relative="1" as="geometry">
            <mxPoint x="623.3333740234375" y="412.66668701171875" as="targetPoint" />
          </mxGeometry>
        </mxCell>
        <mxCell id="XBTfPMOrWh-o7naQ7V93-6" value="判断当前工艺阶段" style="rounded=1;whiteSpace=wrap;html=1;" vertex="1" parent="WIyWlLk6GJQsqaUBKTNV-1">
          <mxGeometry x="160" y="291" width="120" height="60" as="geometry" />
        </mxCell>
        <mxCell id="XBTfPMOrWh-o7naQ7V93-13" style="edgeStyle=orthogonalEdgeStyle;rounded=0;orthogonalLoop=1;jettySize=auto;html=1;exitX=0.5;exitY=1;exitDx=0;exitDy=0;" edge="1" parent="WIyWlLk6GJQsqaUBKTNV-1" source="XBTfPMOrWh-o7naQ7V93-7">
          <mxGeometry relative="1" as="geometry">
            <mxPoint x="16" y="500.00006103515625" as="targetPoint" />
          </mxGeometry>
        </mxCell>
        <mxCell id="XBTfPMOrWh-o7naQ7V93-7" value="引晶" style="rounded=1;whiteSpace=wrap;html=1;" vertex="1" parent="WIyWlLk6GJQsqaUBKTNV-1">
          <mxGeometry x="-44" y="419" width="120" height="36" as="geometry" />
        </mxCell>
        <mxCell id="XBTfPMOrWh-o7naQ7V93-17" style="edgeStyle=orthogonalEdgeStyle;rounded=0;orthogonalLoop=1;jettySize=auto;html=1;exitX=0.5;exitY=1;exitDx=0;exitDy=0;" edge="1" parent="WIyWlLk6GJQsqaUBKTNV-1" source="XBTfPMOrWh-o7naQ7V93-8" target="XBTfPMOrWh-o7naQ7V93-15">
          <mxGeometry relative="1" as="geometry" />
        </mxCell>
        <mxCell id="XBTfPMOrWh-o7naQ7V93-8" value="放肩" style="rounded=1;whiteSpace=wrap;html=1;" vertex="1" parent="WIyWlLk6GJQsqaUBKTNV-1">
          <mxGeometry x="160" y="416" width="120" height="35" as="geometry" />
        </mxCell>
        <mxCell id="XBTfPMOrWh-o7naQ7V93-18" style="edgeStyle=orthogonalEdgeStyle;rounded=0;orthogonalLoop=1;jettySize=auto;html=1;exitX=0.5;exitY=1;exitDx=0;exitDy=0;entryX=0.5;entryY=0;entryDx=0;entryDy=0;" edge="1" parent="WIyWlLk6GJQsqaUBKTNV-1" source="XBTfPMOrWh-o7naQ7V93-9" target="XBTfPMOrWh-o7naQ7V93-16">
          <mxGeometry relative="1" as="geometry" />
        </mxCell>
        <mxCell id="XBTfPMOrWh-o7naQ7V93-9" value="转肩" style="rounded=1;whiteSpace=wrap;html=1;" vertex="1" parent="WIyWlLk6GJQsqaUBKTNV-1">
          <mxGeometry x="365" y="416" width="120" height="39" as="geometry" />
        </mxCell>
        <mxCell id="XBTfPMOrWh-o7naQ7V93-14" value="统计调温阶段数据：剩余料量、调温时长、调温结束时的亮度" style="rounded=1;whiteSpace=wrap;html=1;" vertex="1" parent="WIyWlLk6GJQsqaUBKTNV-1">
          <mxGeometry x="-44" y="500" width="120" height="96" as="geometry" />
        </mxCell>
        <mxCell id="XBTfPMOrWh-o7naQ7V93-15" value="统计引晶阶段数据：&lt;div&gt;引晶平均拉速、引晶时间、引晶时长&lt;/div&gt;" style="rounded=1;whiteSpace=wrap;html=1;" vertex="1" parent="WIyWlLk6GJQsqaUBKTNV-1">
          <mxGeometry x="160" y="498" width="120" height="100" as="geometry" />
        </mxCell>
        <mxCell id="XBTfPMOrWh-o7naQ7V93-16" value="统计放肩阶段数据：&lt;div&gt;放肩时长、放肩时间、功率干预标记&lt;/div&gt;" style="rounded=1;whiteSpace=wrap;html=1;" vertex="1" parent="WIyWlLk6GJQsqaUBKTNV-1">
          <mxGeometry x="365" y="502" width="120" height="99" as="geometry" />
        </mxCell>
        <mxCell id="XBTfPMOrWh-o7naQ7V93-23" style="edgeStyle=orthogonalEdgeStyle;rounded=0;orthogonalLoop=1;jettySize=auto;html=1;exitX=0.5;exitY=1;exitDx=0;exitDy=0;entryX=0.5;entryY=0;entryDx=0;entryDy=0;" edge="1" parent="WIyWlLk6GJQsqaUBKTNV-1" source="XBTfPMOrWh-o7naQ7V93-21" target="XBTfPMOrWh-o7naQ7V93-22">
          <mxGeometry relative="1" as="geometry" />
        </mxCell>
        <mxCell id="XBTfPMOrWh-o7naQ7V93-21" value="..." style="rounded=1;whiteSpace=wrap;html=1;" vertex="1" parent="WIyWlLk6GJQsqaUBKTNV-1">
          <mxGeometry x="561" y="414" width="120" height="39" as="geometry" />
        </mxCell>
        <mxCell id="XBTfPMOrWh-o7naQ7V93-22" value="..." style="rounded=1;whiteSpace=wrap;html=1;" vertex="1" parent="WIyWlLk6GJQsqaUBKTNV-1">
          <mxGeometry x="561" y="502" width="120" height="99" as="geometry" />
        </mxCell>
      </root>
    </mxGraphModel>
  </diagram>
</mxfile>
